<svg width="51" height="53" viewBox="0 0 51 53" fill="none" xmlns="http://www.w3.org/2000/svg">
<g clip-path="url(#clip0_19_332)">
<path d="M1.00023 30.1723L1.12586 11.2643C1.1486 7.84156 3.54143 4.90943 6.84647 4.25432L25.1044 0.635331C29.492 -0.234341 33.5634 3.19867 33.5333 7.74242L33.4076 26.6503C33.3849 30.073 30.9921 33.0052 27.6871 33.6604L9.42904 37.2793C5.0415 38.1489 0.970038 34.716 1.00023 30.1723Z" fill="#1D4FFF" fill-opacity="0.2"/>
<path d="M8.9456 37.7123L9.07122 18.8043C9.09397 15.3816 11.4868 12.4494 14.7918 11.7943L33.0499 8.17533C37.4374 7.30567 41.5089 10.7387 41.4786 15.2824L41.353 34.1904C41.3303 37.6131 38.9374 40.5453 35.6324 41.2004L17.3744 44.8194C12.9869 45.6891 8.91541 42.256 8.9456 37.7123Z" fill="#1D4FFF" fill-opacity="0.55"/>
<path d="M16.891 45.2592L17.0167 26.3513C17.0394 22.9284 19.4322 19.9964 22.7372 19.3412L40.9952 15.7222C45.3827 14.8526 49.4543 18.2856 49.4241 22.8293L49.2985 41.7373C49.2756 45.16 46.8828 48.0921 43.5778 48.7473L25.3199 52.3662C20.9323 53.2359 16.8609 49.8029 16.891 45.2592Z" fill="#1D4FFF" fill-opacity="0.8"/>
</g>
<defs>
<clipPath id="clip0_19_332">
<rect width="50.4242" height="52" fill="white" transform="translate(0 0.5)"/>
</clipPath>
</defs>
</svg>
